# xmcd CD database file
#
# Track frame offsets:
#	150
#	21163
#	36620
#	60402
#	74639
#	92436
#	110391
#	141982
#	159597
#
# Disc length: 2347 seconds
#
# Revision: 2
# Processed by: cddbd v1.5.2PL0 Copyright (c) Steve Scherf et al.
# Submitted via: CDex 1.51
#
DISCID=7c092909
DTITLE=Miriam Makeba - Miriam Makeba in Concert
DYEAR=1967
DGENRE=Jazz
TTITLE0=Banoyi
TTITLE1=Jolinkomo
TTITLE2=When I've Passed On
TTITLE3=Mommy
TTITLE4=Reza
TTITLE5=Click Song #2
TTITLE6=A Piece of Ground
TTITLE7=Mas Que Nada
TTITLE8=Ibabalazie
EXTD=YEAR: 1967
EXTT0=
EXTT1=
EXTT2=
EXTT3=
EXTT4=
EXTT5=
EXTT6=
EXTT7=
EXTT8=
PLAYORDER=
